<svg width="22" height="22" viewBox="0 0 22 22" fill="none"
    xmlns="http://www.w3.org/2000/svg">
    <circle cx="11.3081" cy="10.7439" r="10.1091" fill="#20252B" stroke="#C678DD" stroke-width="0.5"/>
    <path d="M5.29663 15V6.46875H7.50562C7.90015 6.46875 8.26929 6.51758 8.61304 6.61523C8.95679 6.70898 9.26929 6.84375 9.55054 7.01953C9.79663 7.16406 10.0154 7.3418 10.2068 7.55273C10.4021 7.75977 10.572 7.98633 10.7166 8.23242C10.8845 8.5332 11.0134 8.86523 11.1033 9.22852C11.197 9.5918 11.2439 9.97852 11.2439 10.3887V11.0918C11.2439 11.4863 11.2009 11.8594 11.115 12.2109C11.0291 12.5625 10.908 12.8848 10.7517 13.1777C10.6033 13.4395 10.4294 13.6816 10.2302 13.9043C10.031 14.123 9.81226 14.3066 9.57397 14.4551C9.29663 14.6309 8.98999 14.7656 8.65405 14.8594C8.32202 14.9531 7.96655 15 7.58765 15H5.29663ZM6.95483 7.80469V13.6758H7.58765C7.79077 13.6758 7.98022 13.6504 8.15601 13.5996C8.33179 13.5488 8.49194 13.4746 8.63647 13.377C8.78491 13.2754 8.91772 13.1465 9.03491 12.9902C9.15601 12.8301 9.25952 12.6445 9.34546 12.4336C9.41577 12.25 9.46851 12.0469 9.50366 11.8242C9.54272 11.5977 9.56226 11.3535 9.56226 11.0918V10.377C9.56226 10.1309 9.54272 9.89844 9.50366 9.67969C9.46851 9.45703 9.41577 9.25391 9.34546 9.07031C9.25952 8.85156 9.14624 8.65625 9.00562 8.48438C8.8689 8.3125 8.70874 8.17188 8.52515 8.0625C8.38452 7.98047 8.22827 7.91797 8.0564 7.875C7.88843 7.82812 7.70483 7.80469 7.50562 7.80469H6.95483ZM13.7203 6.46875L14.5289 9.67383L15.4488 6.46875H17.4937V15H15.982V12.4746L16.0523 8.48438L14.9332 12.1875H14.1187L13.1168 8.64258L13.1871 12.4746V15H11.6754V6.46875H13.7203Z" fill="#D7B56E"/>
</svg>
