<svg width="36" height="30" viewBox="0 0 36 30" fill="none" xmlns="http://www.w3.org/2000/svg">
<path d="M17.8267 29.7111V26.1953L28.5227 15.4993L32.0385 19.0151L21.3425 29.7111H17.8267ZM0 19.3122V16.3411H14.8556V19.3122H0ZM34.1678 16.8858L30.652 13.37L32.088 11.934C32.3521 11.6699 32.6988 11.5378 33.1279 11.5378C33.5571 11.5378 33.9037 11.6699 34.1678 11.934L35.6039 13.37C35.868 13.6341 36 13.9807 36 14.4099C36 14.8391 35.868 15.1857 35.6039 15.4498L34.1678 16.8858ZM0 11.1417V8.17056H23.2737V11.1417H0ZM0 2.97111V0H23.2737V2.97111H0Z" fill="#90A4AE"/>
</svg>
