<svg width="36" height="36" viewBox="0 0 36 36" fill="none" xmlns="http://www.w3.org/2000/svg">
<path d="M18 36C15.5 36 13.1622 35.5267 10.9865 34.58C8.81075 33.6333 6.90908 32.3461 5.28145 30.7185C3.65385 29.0909 2.3667 27.1893 1.42 25.0136C0.473333 22.8379 0 20.5 0 18C0 16.5911 0.166667 15.2222 0.5 13.8933C0.833333 12.5644 1.31667 11.2917 1.95 10.075C2.58333 8.85833 3.34167 7.725 4.225 6.675C5.10833 5.625 6.11667 4.68333 7.25 3.85L20.65 17.25L18.55 19.4L7.05 7.9C5.75 9.3 4.75 10.8583 4.05 12.575C3.35 14.2917 3 16.1 3 18C3 22.1667 4.45833 25.7083 7.375 28.625C10.2917 31.5417 13.8333 33 18 33C22.1667 33 25.7083 31.5417 28.625 28.625C31.5417 25.7083 33 22.1667 33 18C33 14.0667 31.6833 10.6583 29.05 7.775C26.4167 4.89167 23.1333 3.31667 19.2 3.05V8.05H16.2V0H17.9C20.3907 0 22.7384 0.475 24.9431 1.425C27.1477 2.375 29.0667 3.65833 30.7 5.275C32.3333 6.89167 33.625 8.79167 34.575 10.975C35.525 13.1583 36 15.5 36 18C36 20.5 35.5267 22.8379 34.58 25.0136C33.6333 27.1893 32.3461 29.0909 30.7185 30.7185C29.0909 32.3461 27.1893 33.6333 25.0136 34.58C22.8379 35.5267 20.5 36 18 36ZM17.9053 30.85C17.3684 30.85 16.9167 30.6684 16.55 30.3052C16.1833 29.9421 16 29.4921 16 28.9552C16 28.4184 16.1816 27.9667 16.5447 27.6C16.9079 27.2333 17.3579 27.05 17.8947 27.05C18.4316 27.05 18.8833 27.2316 19.25 27.5948C19.6167 27.9579 19.8 28.4079 19.8 28.9448C19.8 29.4816 19.6184 29.9333 19.2553 30.3C18.8921 30.6667 18.4421 30.85 17.9053 30.85ZM28.9552 19.8C28.4184 19.8 27.9667 19.6184 27.6 19.2553C27.2333 18.8921 27.05 18.4421 27.05 17.9053C27.05 17.3684 27.2316 16.9167 27.5948 16.55C27.9579 16.1833 28.4079 16 28.9448 16C29.4816 16 29.9333 16.1816 30.3 16.5447C30.6667 16.9079 30.85 17.3579 30.85 17.8947C30.85 18.4316 30.6684 18.8833 30.3052 19.25C29.9421 19.6167 29.4921 19.8 28.9552 19.8ZM7.00525 19.8C6.46842 19.8 6.01667 19.6184 5.65 19.2553C5.28333 18.8921 5.1 18.4421 5.1 17.9053C5.1 17.3684 5.28158 16.9167 5.64475 16.55C6.00788 16.1833 6.45788 16 6.99475 16C7.53158 16 7.98333 16.1816 8.35 16.5447C8.71667 16.9079 8.9 17.3579 8.9 17.8947C8.9 18.4316 8.71842 18.8833 8.35525 19.25C7.99212 19.6167 7.54212 19.8 7.00525 19.8Z" fill="#90A4AE"/>
</svg>
