<svg width="36" height="26" viewBox="0 0 36 26" fill="none" xmlns="http://www.w3.org/2000/svg">
<path d="M2.7 25.2C1.98 25.2 1.35 24.9225 0.81 24.3675C0.27 23.8125 0 23.19 0 22.5V2.7C0 1.98 0.27 1.35 0.81 0.81C1.35 0.27 1.98 0 2.7 0H33.3C34.02 0 34.65 0.27 35.19 0.81C35.73 1.35 36 1.98 36 2.7V22.5C36 23.19 35.73 23.8125 35.19 24.3675C34.65 24.9225 34.02 25.2 33.3 25.2H2.7ZM2.7 22.5H33.3V2.7H2.7V22.5ZM9.9 19.575H26.1V16.875H9.9V19.575ZM5.535 13.95H8.235V11.25H5.535V13.95ZM11.115 13.95H13.815V11.25H11.115V13.95ZM16.65 13.95H19.35V11.25H16.65V13.95ZM22.23 13.95H24.93V11.25H22.23V13.95ZM27.765 13.95H30.465V11.25H27.765V13.95ZM5.535 8.325H8.235V5.625H5.535V8.325ZM11.115 8.325H13.815V5.625H11.115V8.325ZM16.65 8.325H19.35V5.625H16.65V8.325ZM22.23 8.325H24.93V5.625H22.23V8.325ZM27.765 8.325H30.465V5.625H27.765V8.325Z" fill="#90A4AE"/>
</svg>
